<svg xmlns="http://www.w3.org/2000/svg" viewBox="0 0 799.96 554.27"><defs><style>.cls-1{fill:#b3e8ce;}.cls-2{fill:#1f232d;}</style></defs><g id="Layer_2" data-name="Layer 2"><g id="Layer_1-2" data-name="Layer 1"><g id="Logo_2" data-name="Logo 2"><path class="cls-1" d="M567.42,315.35c0,144.83-92.27,201-237.1,201s-283-90.09-283-234.91S240.4.35,380.58,36.74C523.71,73.89,567.42,170.53,567.42,315.35Z"/><path class="cls-1" d="M142.51,529.33c0,19-15.41,24.94-34.42,24.94s-27.61-5.39-27.61-24.4,12-32.42,31-32.42S142.51,510.33,142.51,529.33Z"/><path class="cls-2" d="M145.07,270.4c3.63,0,6.45.8,7.66,2.41a5.42,5.42,0,0,1,1.21,2.83c0,2-2.42,3.22-7.66,3.62-16.12,2-56.82,17.33-92.28,34.66-21,10.07-30.63,13.7-37.48,13.7a19.85,19.85,0,0,1-4.83-.81C3.63,324,0,315.53,0,299.41c0-14.91,3.22-36.27,10.07-65.28C29,153.53,64.48,58.83,94.3,10.88,98.33,3.63,103.16,0,106.39,0c2,0,3.62,1.21,4.43,4.43V5.64c0,5.64-5.24,16.52-8.46,18.14C99.94,25,89.46,46.75,77,76.57,42.72,158,10.48,270,10.48,304.65c0,2,.4,3.63.4,4.84.81,5.64,2,8.86,6.45,8.86,5.24,0,14.91-4.43,33.45-13.7C95.1,282.49,129.76,270.4,145.07,270.4Z"/><path class="cls-2" d="M111.62,214.38c0-14.1,6-32.64,16.93-46.34,4.83-6,10.48-9.27,14.51-9.27,3.62,0,6.44,2.42,6.44,7.66,0,4,3.23,12.09,5.64,14.1A26,26,0,0,0,172.88,187c6,0,12.89-1.61,21-5.24a14.92,14.92,0,0,1,6-1.61c2,0,2.82.81,2.82,1.61,0,1.61-2,4-6.45,6a52.12,52.12,0,0,1-24.58,6.44,39.42,39.42,0,0,1-16.53-3.62c-.8,0-1.2.4-1.61,2.82-2.42,23.37-16.52,44.33-27.8,44.33a5.86,5.86,0,0,1-2.82-.41C115.25,234.93,111.62,226.07,111.62,214.38Zm33.85-27a9.14,9.14,0,0,0-1.21-5.24,23.72,23.72,0,0,1-2-3.62c-.4-.4-.81-.81-1.21-.81-4.43,0-14.51,27-14.51,41.51,0,4,0,5.24,1.21,5.24a6.3,6.3,0,0,0,2.42-1.21C137.82,217.61,145.47,197.86,145.47,187.38Z"/><path class="cls-2" d="M85.43,409.42c0-31.83,34.66-96.71,84.22-150.71,4.44-5.24,6-7.25,6.85-9.27,1.62-4.83,8.47-33.85,14.11-56.82,7.65-33,12.09-45.53,17.33-45.53a7,7,0,0,1,4.83,2.41c.81.81.81,2,.81,4.84,0,8.86-4,30.22-12.09,65.28-1.21,5.24-2,9.67-2,9.67.41,0,2.42-1.61,4.84-3.62,26.6-22.57,57.62-41.51,66.89-41.51a3.07,3.07,0,0,1,2,.81c.4.8.8,1.2.8,2,0,1.21-2,2.82-7.65,5.64-18.14,8.87-43.12,26.6-64.88,45.54-5.64,5.24-5.64,5.24-7.26,12.09-24.58,95.5-69.71,178.11-95.5,178.11-1.61,0-3.22,0-4.43-.8C88.25,424.74,85.43,418.69,85.43,409.42Zm67.7-83.82c6.05-16.92,17.73-54,17.73-56.41-1.21,0-20.15,22.16-29.82,35.46C112.43,342.93,93.49,384,93.49,407.81c0,7.26,1.21,10.88,4,10.88,1.21,0,3.22-1.21,5.64-3.22C118.07,402.17,137.82,366.31,153.13,325.6ZM203.5,131c0-4.84,3.63-9.67,8.87-9.67,4,0,7.25,3.62,7.25,8,0,5.24-4,9.27-8.46,9.27A7.81,7.81,0,0,1,203.5,131Z"/><path class="cls-2" d="M253.47,226.88a81.35,81.35,0,0,1,6-29c10.48-25.79,27.41-42.31,41.91-42.31A18.5,18.5,0,0,1,315.53,162c1.61,1.61,2.42,2,2.82,2h.8q3.63-2.41,6.05-2.42c2.42,0,4,2,4,5.64,0,3.23-1.21,7.26-3.23,11.69-6.85,14.51-10.88,28.61-10.88,38.28,0,5.24.81,8.87,2.83,11.29a4.35,4.35,0,0,0,3.62,1.61c8.87,0,27.4-16.12,44.73-39.49,3.23-4.44,5.24-6.85,6.85-6.85.81,0,1.21.8,1.21,2.41v.41c0,8.06-30.22,40.7-43.12,47.95a23.09,23.09,0,0,1-11.68,3.63c-10.08,0-16.93-10.08-16.93-27.81a65.54,65.54,0,0,0-.4-7.25s-1.61,2.42-3.63,5.64c-16.52,27-25.79,38.28-33.85,38.28a11.74,11.74,0,0,1-3.62-.8h.4C256.29,244.2,253.47,236.55,253.47,226.88Zm45.13-31.44c.81-1.61,3.63-5.64,5.64-9.27,2.82-4.43,4-6,4-6.85a3.45,3.45,0,0,0-1.21-2.41,7.63,7.63,0,0,0-6-3.23c-13.3,0-35.86,33-35.86,57.63,0,4,.4,5.64,1.2,5.64,1.21,0,2.42-1.21,5.24-4C277.24,227.28,288.12,212.37,298.6,195.44Z"/><path class="cls-2" d="M370.78,320.33c-3.62,8.46-6.45,15.31-6.45,15.31,0,.41,4.84.41,10.89.41h4.43c13.3,0,20.15,2.82,20.15,8.06a5.93,5.93,0,0,1-.81,3.62,6.51,6.51,0,0,1-5.64,3.63,2.55,2.55,0,0,1-2.82-2.82c0-1.21-3.63-2-8.87-2a99.58,99.58,0,0,0-18.13,2c-5.64.81-3.63-2.42-12.9,20.95-20.95,52.39-41.5,114.45-43.52,131.78-.4,4.43-2.42,6.45-4.43,6.45s-4-2-4.43-6.05v-1.61c0-16.12,20.15-80.6,45.13-141.44,1.21-2.83,2-4.44,2-5.24a.86.86,0,0,0-.8-.81c-1.21,0-2.82.81-6,1.61a460.89,460.89,0,0,0-68.9,25c-6.86,3.22-6.86,3.22-15.32,18.13-27.4,50.77-49.16,99.54-52.79,119.28-1.61,6.45-4.83,9.67-8.86,9.67a7.74,7.74,0,0,1-4-1.21,7.45,7.45,0,0,1-3.63-6.85c0-2.41.81-5.24,2-8.86,8.87-24.58,32.24-73.34,54.81-114.45a15.55,15.55,0,0,1,.81-2v-.41c-.81,0-2,.81-4.84,2a392.22,392.22,0,0,0-40.3,23.37c-3.62,2-6,3.23-8.06,3.23s-2.82-1.21-2.82-4c0-4.44,21.76-18.94,54.81-36.68,11.68-6,11.68-6,16.92-14.91C313.56,272.38,370.78,207.1,394.16,207.1c3.62,0,6.44,2,8.46,5.64.8,1.61,1.21,4.43,1.21,7.65a66.31,66.31,0,0,1-1.62,13.3C397,253.44,388.51,276.41,370.78,320.33Zm23.78-97.92c0-2.82-.81-4.43-2.42-4.43a5.77,5.77,0,0,0-2.42.8C374,226,338.54,265.93,309.53,307.44c-10.88,15.71-36.27,55.2-36.27,56.82.4,0,2-.41,6.85-2.42,21.36-9.27,46.34-17.73,64.88-22.17,6.85-1.61,6.85-1.61,16.52-24.17C384.08,262.71,394.56,232.89,394.56,222.41Z"/><path class="cls-2" d="M597.26,386.42c1.21,0,1.61.81,1.61,2,0,4-7.65,16.93-26.19,45.14-31,47.15-49.16,66.49-64.88,69.31a13,13,0,0,1-3.22.4,6.16,6.16,0,0,1-3.23-.8c-9.67-2.42-14.1-14.11-14.1-32.64,0-25,8.46-62.47,25.39-105.58a1.76,1.76,0,0,1,.4-1.21c-.4,0-2.42,2.41-7.66,10.47-37.07,52.79-68.91,82.21-85,82.21-8.05,0-12.49-6.45-12.49-20.15a77,77,0,0,1,1.21-12.49A77.06,77.06,0,0,0,410.28,413c0-2.42-.81-3.63-2-6a23,23,0,0,1-4-12.89,35.45,35.45,0,0,1,.81-6.45c2.82-10.88,8.46-16.52,12.9-16.52,3.22,0,5.64,3.22,5.64,9.67a28.72,28.72,0,0,1-.4,5.64c-.41,3.22-.81,4.84-.81,6.45,0,2,.81,3.22,2.42,6.45a26.59,26.59,0,0,1,2.42,10.88c0,4-.81,8.86-2.83,15.71-2,6.45-2.82,11.29-2.82,14.51s.81,4.83,3.23,4.83c2,0,4.43-1.2,8.06-2.82,18.13-9.27,42.71-37.47,73.34-84.22,16.12-24.58,19.34-29.82,23.77-41.1,3.63-9.27,9.27-23,13.71-33.85v-.4c0-2.83-9.68-4-25.39-4-21.36,0-54,2.42-84.22,7.26A71.65,71.65,0,0,1,424,287.29c-2.82,0-4-.81-4-2,0-.4.4-1.21.4-1.61,1.62-4.43,59.24-12.49,106.39-14.91,26.6-1.21,23.37,0,27-8.06,13.7-29.82,33.85-68.91,39.09-74.15,2-2,3.63-3.22,5.24-3.22,2.82,0,4.83,2.82,4.83,6.85a11.26,11.26,0,0,1-.4,3.63c-2.42,11.28-14.91,39.09-29,66.89-1.62,3.23-2.42,4.84-2.42,5.64,0,1.21,1.21,1.21,4.43,1.61,23,1.21,27.81,1.62,34.66,2.42,35.06,4,54.4,9.67,56,16.12v1.21c0,3.22-2.82,5.24-6,5.24a4.55,4.55,0,0,1-4.44-3.23c-1.21-3.62-47.15-9.67-82.61-10.88h-1.21c-10.47,0-13.7,5.65-28.2,40.71C511,400.12,494.5,452.11,494.5,477.9c0,10.47,2.82,16.52,8.47,18.53a8.68,8.68,0,0,0,3.22.41c14.1,0,36.67-27,78.18-93.5,9.26-14.5,10.47-16.92,12.49-16.92Z"/><path class="cls-2" d="M581.14,421.48A48.21,48.21,0,0,1,582.75,409c6.85-27.81,24.58-49.17,38.29-49.17a11.3,11.3,0,0,1,7.65,2.82c3.63,2.82,4.84,7.26,4.84,12.09,0,16.53-15.72,39.9-29.82,39.9a16.84,16.84,0,0,1-4.43-.81,6.16,6.16,0,0,0-3.23-.8c-.8,0-1.21.8-1.61,3.22a28.65,28.65,0,0,0-.81,8.06c0,11.28,6.45,17.73,16.12,17.73,4.84,0,10.48-1.61,16.53-4.83,12.89-7.26,27-21.36,48.35-49.57,6.85-9.27,7.26-9.67,9.27-9.67s2.82.8,2.82,2.41q0,4.25-7.25,13.3c-29.42,39.09-52,58-70.93,58-1.61,0-2.82-.4-4-.4C590,449.28,581.14,438,581.14,421.48Zm40.7-47.55c0-1.21-.4-2-1.21-2-3.22,0-11.28,9.67-16.92,20.15a6.48,6.48,0,0,0-1.21,3.63,2.76,2.76,0,0,0,2.82,2.82,6.38,6.38,0,0,0,3.22-1.21C614.59,392.87,621.84,380.37,621.84,373.93Z"/><path class="cls-2" d="M657.3,524.24c0-17.73,17.73-48.76,48-79.39l6.85-6.85c-1.21-.8-10.88-6-17.73-9.27-16.53-8.06-24.58-18.53-24.58-30.62,0-15.72,13.7-34.26,41.5-52.39,10.48-6.85,21.36-10.48,30.23-10.48,9.26,0,15.71,4,15.71,11.69a15.76,15.76,0,0,1-1.21,5.64c-1.61,4-6.44,6.45-9.67,6.45-2,0-3.63-.81-3.63-2.82v-1.62a1.48,1.48,0,0,0-1.61-1.61c-6.85,0-28.61,13.7-41.91,27-10.07,10.08-15.31,16.93-15.31,22.57,0,6,6,10.88,18.13,17.73,5.24,2.82,11.29,6.45,13.7,8.06,2,1.21,3.63,2,4.44,2h.4c.4,0,2.42-1.61,4.43-3.22,19.35-16.52,61.26-43.12,69.72-43.92h2c2,0,3.23.4,3.23,1.21,0,1.61-3.23,4.43-9.27,7.65-18.14,9.67-46.34,28.61-61.25,40.7-2,2-3.23,2.82-3.23,3.63s.81,1.61,2.42,3.22c6,6.85,8.87,15.32,8.87,25,0,13.7-6.45,29.41-18.94,44.32-14.91,17.74-35.06,30.23-47.55,30.23a11,11,0,0,1-3.63-.41C660.53,537.13,657.3,531.89,657.3,524.24Zm70.52-60.05a28.88,28.88,0,0,0-2.41-11.68c-2.82-5.64-4.44-8.46-6.85-8.46-2,0-4.84,2.41-9.68,7.65-27.4,28.21-45.13,58.43-45.13,71.73,0,4.84,2,7.26,6.45,7.26a22.4,22.4,0,0,0,6.45-1.21C704.05,519.81,727.82,487.57,727.82,464.19Z"/><path class="cls-2" d="M429.84,182a8,8,0,0,1-2.49-.34c-5.83-1.59-9.06-9.68-9.06-22.78,0-1.86.08-3.79.22-5.79-7,9.57-11.47,13-16.81,13.19h-.41c-2.45,0-10.46-1.11-10.46-15.35,0-13,7.86-34.89,20.18-39.49a12.85,12.85,0,0,1,5.1-1c4.61,0,8.22,1.64,10.77,4.89,14.48-46.13,41.49-90.75,57.36-94.4a7.86,7.86,0,0,1,2.34-.29c1.26,0,7.57.45,7.57,9.38,0,12.91-12.85,36.73-23.64,54.44-11.4,19-21.52,32.52-32.83,43.82-2.08,2.22-2.12,2.26-4.14,12.18-3.33,15-2.19,26.4-1.1,28.53h.47a4.73,4.73,0,0,1,5,5v.64l0,.39,0,.1A8,8,0,0,1,429.84,182ZM416,125.76c-3.19.22-12,13.71-12,26.75v.12c1.28-1.16,2.9-2.74,4-3.93,1.59-1.88,8.75-12.24,11.55-16.71a31.68,31.68,0,0,0-3.38-6.16Zm65.52-89.7c-.52.51-1.07,1.09-1.66,1.75-11.11,12.83-23.7,36.38-35,65.35C461.79,80.23,477.16,50.92,481.55,36.06Z"/><path class="cls-1" d="M486.58,21.87c1.48,0,6.32.59,6.32,8.13,0,12.62-12.76,36.23-23.46,53.79-11.35,18.92-21.43,32.37-32.64,43.59-2.3,2.45-2.39,2.55-4.48,12.81-3.5,15.73-2.3,28.91-.43,30l.3,0h.72a3.49,3.49,0,0,1,3.8,3.8v.54l0,.39a6.82,6.82,0,0,1-6.84,5.76,6.73,6.73,0,0,1-2.11-.28c-5.21-1.42-8.19-9.28-8.19-21.59a83.28,83.28,0,0,1,.7-10.39c-8.41,12.24-13.1,16.34-18.58,16.54h-.37c-2.77,0-9.21-1.37-9.21-14.1s7.54-33.9,19.37-38.32a11.73,11.73,0,0,1,4.66-.89c5.12,0,8.87,2.21,11.18,6.57,13.88-45.78,41.52-92.5,57.23-96.11a6.85,6.85,0,0,1,2.06-.26m-45.91,88.82c20.07-25.11,40.34-63.44,43.07-78.3A42.1,42.1,0,0,0,479,37c-12.19,14.09-26.3,41.33-38.29,73.73m-37.83,44.53.16-.11a57.17,57.17,0,0,0,5.89-5.57c1.78-2.1,9.49-13.3,12-17.4a29.9,29.9,0,0,0-3.93-7.27,1.4,1.4,0,0,0-.85-.36c-4.53,0-13.37,15.11-13.37,28,0,1.27,0,2.13.1,2.71M486.58,19.37a9.41,9.41,0,0,0-2.7.34c-11.11,2.63-24.07,22-30.81,33.38a304.88,304.88,0,0,0-26.73,59.81,14.57,14.57,0,0,0-10.23-3.73,14.21,14.21,0,0,0-5.59,1.07c-13,4.89-20.94,27-20.94,40.64,0,15.4,9,16.6,11.71,16.6h.46c5.09-.19,9.39-3,15.31-10.46,0,.61,0,1.22,0,1.81,0,13.68,3.55,22.19,10,24a9.6,9.6,0,0,0,12.12-7.47l0-.21,0-.38V174a5.93,5.93,0,0,0-5.89-6.29c-.94-3.24-1.45-14,1.44-27,1.95-9.56,1.95-9.61,3.83-11.61,11.37-11.38,21.55-25,33-44C487.39,59.14,495.4,40.6,495.4,30c0-7.84-4.75-10.63-8.82-10.63ZM450.13,93.55c9.22-21.91,19.22-40.35,28.15-51.81-5.17,13.48-15.89,33.69-28.15,51.81Zm-44.74,56c1.05-10.71,7.48-20.76,10.23-22.36a39.1,39.1,0,0,1,2.49,4.65c-3,4.65-9.51,14.13-11.1,16-.47.52-1,1.1-1.62,1.68Z"/><path class="cls-2" d="M495.06,188.45a9.62,9.62,0,0,1-4.06-.62,7.79,7.79,0,0,1-5.5-7.5c0-7.63,10.69-19.33,28-30.63-2.17-1.14-5.49-2.58-7.5-3.44a52,52,0,0,1-8.15-4c-4.82,5.62-11.15,11.48-14.47,13.35a13.93,13.93,0,0,1-7.06,2.12c-3.88,0-8.34-2.36-10.24-8.73-6.24,9.44-10,12.7-14.34,12.7a8.25,8.25,0,0,1-2.77-.55l-.05-.09h0c-3.71-1.49-5.84-5.86-5.84-12a40.59,40.59,0,0,1,3-14.36c5.24-12.9,13.93-21.23,22.14-21.23a11.89,11.89,0,0,1,8.15,3.22,6.77,6.77,0,0,1,2.5-.51c2.69,0,5.41,2.11,5.41,6.13a16.74,16.74,0,0,1-1.78,6.77c-2.85,6-4.54,11.87-4.54,15.64a10.47,10.47,0,0,0,.15,1.94c2.31-1,7.62-5.05,14-13.05a7,7,0,0,1-.06-.82c0-10.35,21.64-27.09,32.15-27.09a7.17,7.17,0,0,1,5.89,2.62l.07.11.27.42.07.12a6.84,6.84,0,0,1,.74,2.86c0,3.33-2.56,6.14-5.59,6.14H525c-1.9.38-12.76,7-18.58,12.86A16.43,16.43,0,0,0,504.6,133a42.29,42.29,0,0,0,4.37,2.4l.76.39c7.55,3.85,8.33,4.26,10.34,5.54a25,25,0,0,1,2.9,2.2l.28.22.57-.31c30.41-17.46,77.7-31,98.08-31,3,0,12,0,13.77,6.22l0,.17,0,.11a4,4,0,0,1,.27,1.44,6.21,6.21,0,0,1-6,6.13,5.31,5.31,0,0,1-3.93-1.68,17.21,17.21,0,0,0-4.92-.49,123.4,123.4,0,0,0-16.11,1.41c-21.6,3.16-48.51,12.27-72,24.36L529,152.32a20,20,0,0,1,.93,6c0,5.45-2.32,10.62-7.1,15.81C515.63,181.88,502.92,188.45,495.06,188.45Zm24.41-30.59c-9.81,6.1-19.54,14.31-22.63,19.17-.35.54-.61,1-.81,1.37.36-.07.75-.16,1.16-.28,12-3.17,22.28-13.65,22.28-20ZM465.66,130.1A34.85,34.85,0,0,0,457,143.28c2.11-2.92,4.45-6.43,6.74-10.12.21-.4.59-1,1-1.69C465.08,131,465.38,130.56,465.66,130.1Z"/><path class="cls-1" d="M524.15,107a5.9,5.9,0,0,1,4.91,2.15l.27.42a5.77,5.77,0,0,1,.61,2.31c0,2.65-2,4.89-4.34,4.89H525c-2.1.27-13.49,7.35-19.37,13.23-2.09,2.09-2.48,3-2.55,3.31.6.84,4.05,2.56,5.39,3.23l.74.38c7.49,3.83,8.27,4.23,10.24,5.48a28,28,0,0,1,2.78,2.11l.73.6.19.18.65-.36.68-.38c30.26-17.38,77.24-30.85,97.47-30.85,2.73,0,11,0,12.56,5.32l0,.26a2.87,2.87,0,0,1,.24,1.11,4.92,4.92,0,0,1-4.71,4.88,4,4,0,0,1-3.19-1.49c-.45-.22-2.1-.68-5.66-.68a125.76,125.76,0,0,0-16.28,1.42c-21.74,3.18-48.82,12.35-72.39,24.49l-1.88,1c-1.33.73-2.41,1.32-3.15,1.74a19.42,19.42,0,0,1,1.19,6.55c0,5.12-2.21,10-6.77,15-7,7.56-19.28,13.94-26.84,13.94a8.42,8.42,0,0,1-3.59-.53,6.51,6.51,0,0,1-4.72-6.34c0-7.18,11-19,28-30,.44-.3.8-.55,1.06-.75-1.7-1.22-6.57-3.32-9.33-4.51a46.44,46.44,0,0,1-8.87-4.5c-4.85,5.82-11.58,12.08-14.85,13.92a12.75,12.75,0,0,1-6.45,2c-4.14,0-8.53-2.89-9.66-10.67-7,11-10.81,14.64-14.92,14.64a7.41,7.41,0,0,1-2.37-.48v-.07c-3.21-1.28-5-5.22-5-10.83a39.21,39.21,0,0,1,2.88-13.9c5.05-12.41,13.28-20.44,21-20.44a10.58,10.58,0,0,1,7.87,3.47,6.14,6.14,0,0,1,2.78-.76c2,0,4.16,1.53,4.16,4.88a15.53,15.53,0,0,1-1.67,6.25c-2.91,6.17-4.65,12.21-4.65,16.16a6.59,6.59,0,0,0,.63,3.43c2.21-.12,8.58-4.66,16.09-14.17a10.94,10.94,0,0,1-.11-1.19c0-9.61,21.07-25.84,30.9-25.84m-69.77,41.75a134,134,0,0,0,10.45-14.9c.23-.43.58-1,1-1.68s1-1.64,1.49-2.45l.07-.13.8-1.23.32-.5a.82.82,0,0,0-.58-.25c-3.59,0-12.34,11-13.58,21.14m40.32,31.07a11.3,11.3,0,0,0,2.83-.46c12.85-3.39,23.19-14.38,23.19-21.22a3.53,3.53,0,0,0-.06-.88l-.1-.44c-.06-.38-.1-.7-.15-1-10.54,6.31-21.23,15.19-24.63,20.54a9.59,9.59,0,0,0-1.59,3.4,3.3,3.3,0,0,0,.51,0m29.45-75.32c-11.21,0-33.4,17.23-33.4,28.34,0,.15,0,.3,0,.43-5.1,6.31-9.23,9.81-11.63,11.39,0-3.55,1.72-9.28,4.41-15a18,18,0,0,0,1.91-7.32c0-4.84-3.35-7.38-6.66-7.38a8,8,0,0,0-2.23.34,13.1,13.1,0,0,0-8.42-3.05c-8.86,0-17.78,8.43-23.29,22a41.79,41.79,0,0,0-3.07,14.84c0,6.68,2.41,11.48,6.62,13.16l0-.06.1.17a9.8,9.8,0,0,0,3.17.61c4.48,0,8.28-2.94,14-11.24,2.41,5.26,6.74,7.27,10.57,7.27a15.2,15.2,0,0,0,7.7-2.3c3.28-1.86,9.29-7.36,14.08-12.8a62.38,62.38,0,0,0,7.44,3.53c1.35.58,3.55,1.53,5.46,2.44-13.31,9-26.71,21.29-26.71,30.47a9,9,0,0,0,6.29,8.67,11,11,0,0,0,4.52.7c8.3,0,21.16-6.61,28.68-14.74,5-5.44,7.43-10.89,7.43-16.67a21.14,21.14,0,0,0-.7-5.35l1.33-.73,1.88-1c23.36-12,50.11-21.08,71.58-24.22a122.15,122.15,0,0,1,15.92-1.4,19.49,19.49,0,0,1,4.26.35,6.6,6.6,0,0,0,4.59,1.82,7.39,7.39,0,0,0,7.21-7.38,5.41,5.41,0,0,0-.31-1.76l-.06-.3c-2-7.13-11.77-7.13-15-7.13-20.49,0-67.92,13.56-98.52,31.06a23.42,23.42,0,0,0-2.66-2c-2.05-1.31-2.87-1.72-10.42-5.58l-.74-.38c-1.41-.71-2.4-1.24-3.09-1.63.23-.26.53-.57.88-.92,5.67-5.67,15.82-11.84,17.87-12.5h.37c3.72,0,6.85-3.38,6.85-7.39a8.21,8.21,0,0,0-.87-3.42l-.13-.23-.27-.43-.16-.21a8.33,8.33,0,0,0-6.86-3.09Zm-25.27,71.84c3.43-4.36,10.93-10.65,18.85-15.85-1.9,5.15-9.27,12.64-18.85,15.85Z"/></g></g></g></svg>